<?xml version="1.0" encoding="utf-8"?>
<!-- Generator: Adobe Illustrator 24.2.0, SVG Export Plug-In . SVG Version: 6.00 Build 0)  -->
<svg version="1.1" xmlns="http://www.w3.org/2000/svg" xmlns:xlink="http://www.w3.org/1999/xlink" x="0px" y="0px"
	 viewBox="0 0 397.2 374.7" style="enable-background:new 0 0 397.2 374.7;" xml:space="preserve">
<style type="text/css">
	.st0{fill:#3D395E;}
	.st1{fill:#FFFFFF;}
	.st2{fill:none;stroke:#FFFFFF;stroke-width:20;stroke-miterlimit:10;}
</style>
<g id="Layer_3">
	<circle class="st0" cx="197.8" cy="187.1" r="184"/>
</g>
<g id="Layer_2_1_">
	<g>
		<path class="st1" d="M75.1,96.2l43.9,18.5l-4.4-5.8l7.9,42.9l12.6,68.1l2.9,15.7c0.8,4.1,5.3,7.1,9.3,7.1h134.6c4.4,0,8-3,9.3-7.1
			l29.5-91.1l4.1-12.7c2-6.2-3.3-11.9-9.3-12.2l-51.1-2.1l-81-3.4l-18.6-0.8c-5-0.2-9.8,4.6-9.6,9.6c0.1,5.3,4.4,9.5,9.6,9.6
			l51.1,2.2l81,3.4l18.6,0.8l-9.3-12.2l-29.5,91.1l-4.1,12.7l9.3-7.1H147.3l9.3,7.1l-13.1-70.9l-8.1-43.6c-0.7-3.7-1.3-7.4-2-11.1
			c-1-4.9-4.4-6.8-8.5-8.5l-40-16.9c-4.8-2-10.3-1.4-13.2,3.5C69.3,87.1,70.3,94.2,75.1,96.2z"/>
		<path class="st1" d="M151.8,230.5l-14.1,33.2c-1.4,3.3-1.9,6.5,0,9.7c1.7,2.9,4.9,4.8,8.3,4.8h136.5c5,0,9.9-4.4,9.6-9.6
			c-0.2-5.2-4.2-9.6-9.6-9.6H145.9l8.3,14.5l14.1-33.2c2-4.8,1.4-10.3-3.5-13.2C160.9,224.7,153.8,225.7,151.8,230.5L151.8,230.5z"
			/>
		<circle class="st2" cx="172.2" cy="293.2" r="19.3"/>
		<circle class="st2" cx="257.9" cy="293.2" r="19.3"/>
	</g>
</g>
</svg>
